# xmcd CD database file
# Copyright (C) 1995-1998 Ti Kan
#
# Track frame offsets:
#	150
#	19835
#	47115
#	72227
#	101645
#	150055
#	188906
#	210975
#	240312
#	255831
#
# Disc length: 3664 seconds
#
# Revision: 1
# Processed by: cddbd v1.4b41PL1 Copyright (c) Steve Scherf et al.
# Submitted via: CDex 1.30
#
DISCID=700e4e0a
DTITLE=David Gogo - Dine Under The Stars
DYEAR=1999
DGENRE=Blues
TTITLE0=Don't Lose Your Cool
TTITLE1=You Belong To Me
TTITLE2=Tell Me
TTITLE3=Sweet Little Angel
TTITLE4=Hoochie Coochie Man
TTITLE5=Death Letter
TTITLE6=Sad And Beautiful
TTITLE7=I Feel So Good
TTITLE8=Western Coast
TTITLE9=Fine Young Thing
EXTD=YEAR: 1999  ID3G:   0
EXTT0=
EXTT1=
EXTT2=
EXTT3=
EXTT4=
EXTT5=
EXTT6=
EXTT7=
EXTT8=
EXTT9=
PLAYORDER=
